<svg xmlns="http://www.w3.org/2000/svg" width="18" height="18" viewBox="0 0 18 18" fill="none">
  <path d="M0.514573 0.513596C0.905097 0.123072 1.53826 0.123072 1.92879 0.513596L17.4851 16.0699C17.8757 16.4605 17.8757 17.0936 17.4851 17.4842C17.0946 17.8747 16.4614 17.8747 16.0709 17.4842L0.514573 1.92781C0.124049 1.53729 0.124048 0.904121 0.514573 0.513596Z" fill="#3D3D3D"/>
  <path d="M17.4853 0.515398C17.8758 0.905923 17.8758 1.53909 17.4853 1.92961L1.92893 17.486C1.5384 17.8765 0.905236 17.8765 0.514712 17.486C0.124188 17.0954 0.124188 16.4623 0.514712 16.0717L16.0711 0.515399C16.4616 0.124874 17.0948 0.124874 17.4853 0.515398Z" fill="#3D3D3D"/>
</svg>